<svg width="20" height="20" viewBox="0 0 20 20" fill="none" xmlns="http://www.w3.org/2000/svg">
<path d="M16.0423 9.36094C16.7418 8.85538 16.8732 7.91214 16.3357 7.25414C15.7982 6.59614 14.7954 6.47257 14.0959 6.97812L9.02938 10.6397C8.32984 11.1453 8.19846 12.0885 8.73594 12.7465C9.27342 13.4045 10.2762 13.5281 10.9758 13.0225L16.0423 9.36094Z" fill="#3A3A3C"/>
<path d="M5.90217 6.98292C5.20195 6.47819 4.19932 6.60296 3.66272 7.26159C3.12613 7.92023 3.25877 8.86332 3.95899 9.36805L9.03042 13.0236C9.73064 13.5283 10.7333 13.4036 11.2699 12.7449C11.8065 12.0863 11.6738 11.1432 10.9736 10.6385L5.90217 6.98292Z" fill="#3A3A3C"/>
</svg>
