<svg width="16" height="16" viewBox="0 0 16 16" fill="none" xmlns="http://www.w3.org/2000/svg">
<g clip-path="url(#clip0_424_1208)">
<path d="M13.3758 7.69395C14.0753 7.18839 14.2067 6.24514 13.6692 5.58715C13.1317 4.92915 12.1289 4.80557 11.4294 5.31113L6.36288 8.97272C5.66334 9.47828 5.53196 10.4215 6.06944 11.0795C6.60691 11.7375 7.60972 11.8611 8.30926 11.3555L13.3758 7.69395Z" fill="#3A3A3C"/>
<path d="M3.23567 5.31593C2.53545 4.8112 1.53281 4.93597 0.996217 5.5946C0.459622 6.25324 0.592264 7.19633 1.29248 7.70106L6.36392 11.3566C7.06414 11.8613 8.06677 11.7366 8.60337 11.0779C9.13996 10.4193 9.00732 9.47622 8.3071 8.97149L3.23567 5.31593Z" fill="#3A3A3C"/>
</g>
<defs>
<clipPath id="clip0_424_1208">
<rect width="16" height="16" fill="white" transform="matrix(-1 8.74228e-08 8.74228e-08 1 16 0)"/>
</clipPath>
</defs>
</svg>
